inDegrees=yes
name=ik_MT_012005D6_009-001_orientations
DataType=double
version=3
OpenSimVersion=4.5-2024-01-10-34fd6af
endheader
time	pelvis_tilt	pelvis_list	pelvis_rotation	pelvis_tx	pelvis_ty	pelvis_tz	hip_flexion_r	hip_adduction_r	hip_rotation_r	knee_angle_r	knee_angle_r_beta	ankle_angle_r	subtalar_angle_r	mtp_angle_r	hip_flexion_l	hip_adduction_l	hip_rotation_l	knee_angle_l	knee_angle_l_beta	ankle_angle_l	subtalar_angle_l	mtp_angle_l	lumbar_extension	lumbar_bending	lumbar_rotation	arm_flex_r	arm_add_r	arm_rot_r	elbow_flex_r	pro_sup_r	wrist_flex_r	wrist_dev_r	arm_flex_l	arm_add_l	arm_rot_l	elbow_flex_l	pro_sup_l	wrist_flex_l	wrist_dev_l
7.25999999999989	-38.31773298978514	-131.9994511061725	-48.1500190803921	0	0.9399999999999999	0	-29.99847162371006	-49.99472605842242	39.99865682175685	29.660211673443	0.5176683505400375	-3.850798562104678	0	0	-9.231586320995048	29.99501839453362	39.99826817517109	119.9940975712654	2.094292085577913	-3.850798562104678	0	0	0	0	0	0	-3.770362681413608	0	37.20340788034106	32.75889280517213	0	0	0	-3.770362681413608	0	37.20340788034106	32.75889280517213	0	0
7.269999999999889	-37.86149797826772	-131.9504905023669	-47.88169728234657	0	0.9399999999999999	0	-29.99847418457253	-49.99454078677822	39.99865460474874	29.92350289469875	0.5222636492425473	-3.854475172158059	0	0	-9.529060382510055	29.99511502423537	39.99825795203713	119.9940002933069	2.094290387757246	-3.854475172158059	0	0	0	0	0	0	-3.774579930862781	0	37.23953970461065	32.78471391834069	0	0	0	-3.774579930862781	0	37.23953970461065	32.78471391834069	0	0
7.279999999999889	-37.47237985236946	-131.8319172291064	-47.70250314098291	0	0.9399999999999999	0	-29.99847672606883	-49.99435720439165	39.99865224339807	30.29340701550599	0.5287196940673284	-3.857218930249092	0	0	-9.739998450031907	29.99521648032582	39.99825030999155	119.9939295135694	2.094289152417784	-3.857218930249092	0	0	0	0	0	0	-3.777771557692723	0	37.26671648978844	32.80404946684737	0	0	0	-3.777771557692723	0	37.26671648978844	32.80404946684737	0	0
7.289999999999889	-36.92302393451934	-131.9098872840705	-47.349881360537	0	0.9399999999999999	0	-29.99848242448423	-49.99406808158318	39.99865468394226	30.59390387765387	0.5339643537037204	-3.860485716645236	0	0	-10.19205431945033	29.99533616898	39.99824777083074	119.9938195169768	2.094287232615077	-3.860485716645236	0	0	0	0	0	0	-3.781547931385147	0	37.2989626889191	32.82703883531898	0	0	0	-3.781547931385147	0	37.2989626889191	32.82703883531898	0	0
7.299999999999889	-36.19750387518319	-132.126667619094	-46.72079823722316	0	0.9399999999999999	0	-29.99848996620955	-49.99362802691775	39.99866022437902	30.74980876730453	0.5366854073480829	-3.864588718687386	0	0	-10.82079094873541	29.99546091933145	39.99824689674941	119.9936729067699	2.094284673784249	-3.864588718687386	0	0	0	0	0	0	-3.786309233785502	0	37.33954738573103	32.85593979580984	0	0	0	-3.786309233785502	0	37.33954738573103	32.85593979580984	0	0
7.309999999999889	-35.60087945226489	-132.1179010237137	-46.15588158435219	0	0.9399999999999999	0	-29.99849775610409	-49.99311807156976	39.99866455089682	31.09729226532034	0.542750138484806	-3.868058223824144	0	0	-11.17491403023648	29.99560939786351	39.9982443875362	119.9935141587942	2.094281903109393	-3.868058223824144	0	0	0	0	0	0	-3.790430369242447	0	37.37431029072328	32.88051313297616	0	0	0	-3.790430369242447	0	37.37431029072328	32.88051313297616	0	0
7.319999999999888	-35.28591614276846	-131.6842960893352	-45.94733071818163	0	0.9399999999999999	0	-29.99850522584725	-49.99267221968741	39.99866713250695	31.76318350280011	0.5543721330390075	-3.872246311238623	0	0	-10.863523016322	29.99578343630142	39.99824313605409	119.9933467782122	2.094278981767133	-3.872246311238623	0	0	0	0	0	0	-3.795394868965644	0	37.4162301242959	32.91016618187059	0	0	0	-3.795394868965644	0	37.4162301242959	32.91016618187059	0	0
7.329999999999888	-35.11183484351809	-131.0693665764189	-46.0089659991012	0	0.9399999999999999	0	-29.99851231398272	-49.99228131914779	39.99867025229152	32.62215658523397	0.5693640415134831	-3.87715091404453	0	0	-10.12098432231546	29.99598731274701	39.99824531881177	119.9931131653282	2.094274904453132	-3.87715091404453	0	0	0	0	0	0	-3.801192651479353	0	37.46525398522738	32.94487684410484	0	0	0	-3.801192651479353	0	37.46525398522738	32.94487684410484	0	0
